PathFileType	4	(X/Y/Z)	C:\Users\°ÂÌØÂü\Desktop\20210112\bx_n_5_1802-Unnamed.trc
DataRate	CameraRate	NumFrames	NumMarkers	Units	OrigDataRate	OrigDataStartFrame	OrigNumFrames
50.00	50.00	       4	0	mm	50.00	327	       523
Frame#	Time	
		

327	6.520	-449.20450	79.11187	1722.57715	-732.45197	220.29184	1023.92432	-575.80127	79.49642	1234.11389	-657.39801	211.89383	833.49963	-671.18915	50.31296	161.51073	-653.73865	-39.96969	816.41620	-568.14160	-103.05015	1433.40210	-612.33392	219.30298	526.00592	-717.57849	276.23901	727.36298	-710.06757	65.80359	216.57088	-715.14838	264.18274	499.36514	-518.10956	-72.82912	143.02109	-550.08978	-32.50703	162.39813	-789.70947	42.09519	178.78270	-706.23718	155.27599	214.20267	-597.59625	21.44913	171.30363	-674.18152	175.07275	158.13771	-793.68988	176.98526	186.41301	-765.94080	227.92975	205.56004	-592.76099	222.71968	174.81305	-882.60156	296.20987	144.66661	-556.73926	257.91550	164.77486	-662.27039	300.31451	155.28877	-625.49103	309.20135	156.96118	-528.20709	304.17682	146.44556	-779.83093	278.19012	848.03717	-661.54803	-56.73569	557.98749	-716.84625	-59.35781	484.77463	-756.72699	-20.21359	207.30077	-875.86890	-78.71186	141.06712	-761.29596	-95.84132	842.88953	-721.90857	-86.88819	732.89966	-608.57465	-11.76196	507.52774	-665.42322	-58.80818	603.97510	-722.76624	-25.67266	1008.37958	-668.78967	256.82410	568.67792	-609.87939	-81.20879	154.45569	-652.24054	-72.44623	157.92387	-688.04089	256.56378	625.96881	-621.51404	158.64769	576.92212	-626.40491	48.21358	573.56262										-573.11188	253.74028	1447.21021	
328	6.540	-441.16895	79.16273	1712.13977	-736.03284	219.79245	1019.76666	-575.74689	79.72643	1225.75488	-659.26947	211.60272	832.38232	-671.44720	50.34152	161.38478	-655.13019	-39.84268	815.61188	-564.90283	-102.33808	1424.73145	-609.73627	219.29411	525.36224	-716.50806	276.85605	725.56287	-709.91968	65.83767	216.49416	-712.39331	264.50195	498.65872	-517.85291	-72.82606	143.08759	-550.08978	-32.50703	162.39813	-789.56329	42.17214	178.75352	-706.14569	154.94159	214.03139	-597.62860	21.40623	171.30110	-673.97723	175.24368	157.94627	-793.51233	176.97371	186.52785	-765.71490	227.87230	205.61894	-592.57147	222.61816	174.61702	-882.67053	296.19333	144.58157	-556.60510	257.94525	164.86781	-662.42310	300.08499	155.52283	-625.52448	308.97870	157.05850	-528.16870	304.17886	146.32680	-781.49359	278.61273	845.17651	-658.91730	-57.44267	557.47913	-715.04480	-59.64294	484.24213	-756.12549	-19.89132	206.89359	-876.01031	-78.82362	141.13518	-763.59863	-95.74705	840.73846	-722.73322	-86.95004	731.20477	-606.58405	-11.88488	507.51959	-663.12097	-58.90724	602.94202	-726.03381	-25.49580	1004.21045	-665.50616	257.20755	568.23590	-609.94879	-81.40531	154.42316	-652.06000	-72.40829	157.88713	-685.54431	256.81451	624.44745	-618.98279	158.69473	576.23315	-624.68915	48.03845	573.35938										-569.03278	254.23822	1438.93396	
329	6.560	-432.79507	79.36904	1701.41138	-739.04211	219.94026	1015.29657	-575.59845	79.86617	1217.50842	-660.67755	210.98560	831.11261	-671.45184	50.38420	161.32112	-656.63153	-39.89780	814.41821	-561.27142	-101.81438	1416.22510	-606.82318	218.69598	524.28790	-715.73737	276.66486	723.36505	-709.66150	65.66119	216.15987	-709.42737	264.59241	498.57697	-517.84534	-72.63921	142.99536	-550.08270	-32.44473	162.23825	-789.52942	42.40497	178.70306	-706.05994	154.86320	213.79196	-597.56018	21.51685	171.29034	-673.99713	175.21526	157.79063	-793.48944	176.89221	186.49655	-765.39008	227.81651	205.70499	-592.32220	222.35503	174.65280	-882.49835	296.27173	144.77898	-556.55615	257.91122	164.70766	-662.17004	300.03418	155.60797	-625.39691	308.85938	157.07875	-528.23962	304.12503	146.30989	-783.21375	278.77859	841.99835	-657.06561	-56.63825	555.75732	-713.25830	-59.94312	484.06769	-755.87537	-20.02773	207.44247	-875.85522	-78.73365	141.22168	-766.01501	-94.97884	837.40399	-723.06537	-87.16148	728.99713	-605.22351	-12.40640	506.40970	-661.25787	-59.06040	602.24854	-730.61981	-26.17421	999.66882	-662.69250	256.67880	566.95654	-609.58423	-81.09335	154.83498	-652.15363	-72.41387	158.00581	-682.65759	256.82153	623.05933	-616.59808	158.37962	575.47076	-622.86230	47.17708	572.24731										-565.02246	254.20766	1430.53870	
330	6.580	-424.78943	79.83566	1690.34326	-742.72003	220.29448	1010.12177	-575.95105	79.95290	1209.12708	-662.34155	210.73732	830.03522	-671.42108	50.48270	161.31039	-658.06879	-40.14778	813.10840	-557.59882	-101.52890	1407.16418	-603.67596	217.55931	523.29279	-715.28796	276.08588	720.81012	-709.38385	65.94061	216.00122	-706.78821	263.93576	497.78378	-517.78467	-72.61430	143.19481	-550.16437	-32.54221	162.31874	-789.16107	42.50029	178.78700	-705.64813	154.22833	213.82031	-597.52478	21.42360	171.24249	-674.18018	175.10092	157.56358	-793.29144	176.76193	186.63893	-765.04608	227.73438	205.89598	-592.13593	222.22400	174.75349	-882.53223	296.04727	144.55872	-556.43372	257.77838	164.55487	-662.19348	299.77155	155.79933	-625.37811	308.80664	157.12746	-528.16870	304.17886	146.32680	-785.22180	278.64352	838.46265	-654.84601	-57.96442	555.97491	-712.17010	-60.05797	483.85019	-755.55090	-19.82799	206.95981	-875.85522	-78.73365	141.22168	-768.49622	-95.32673	834.84552	-723.00946	-87.04008	726.73511	-604.07330	-12.62107	505.42368	-659.44666	-59.34092	601.02386	-734.13586	-25.52838	994.49866	-659.31488	256.60193	566.70392	-609.58423	-81.09335	154.83498	-652.22083	-72.51975	157.85803	-680.22968	256.16956	621.59296				-620.80334	46.90399	570.47729										-560.64105	254.96706	1421.48730	
